<svg width="87" height="36" viewBox="0 0 87 36" fill="none" xmlns="http://www.w3.org/2000/svg">
<g clip-path="url(#clip0_1_3)">
<mask id="mask0_1_3" style="mask-type:luminance" maskUnits="userSpaceOnUse" x="0" y="0" width="87" height="36">
<path d="M0 0H86.2222V36H0V0Z" fill="white"/>
</mask>
<g mask="url(#mask0_1_3)">
<path d="M42.016 36C50.8516 36 58.016 27.941 58.016 18C58.016 8.059 50.8516 0 42.016 0C33.1796 0 26.016 8.059 26.016 18C26.016 27.941 33.1796 36 42.016 36Z" fill="#FFCC00"/>
<path d="M60.7316 26.362C60.6818 26.292 60.584 26.282 60.528 26.282C60.5043 26.2813 60.4806 26.2827 60.4569 26.286C60.2853 26.31 60.128 26.32 59.9653 26.32C59.8814 26.3196 59.7976 26.3172 59.7138 26.313C59.6453 26.313 59.584 26.306 59.5227 26.306C59.4213 26.306 59.3387 26.313 59.256 26.331H59.2364L59.2276 26.351C59.2151 26.379 58.8987 27.001 58.9413 27.396C58.9876 27.822 59.3716 27.908 59.664 27.974C59.7689 27.998 59.8889 28.022 60.0116 28.022C60.2201 28.0213 60.3594 27.943 60.4293 27.787C60.5817 27.3663 60.6912 26.9275 60.7556 26.479C60.7605 26.4577 60.7609 26.4353 60.7568 26.4138C60.7526 26.3922 60.744 26.3721 60.7316 26.355V26.362ZM81.6231 27.766C81.4418 27.472 81.1253 27.236 80.8729 27.046C80.7718 26.9763 80.675 26.8992 80.5831 26.815L80.5316 26.773C80.474 26.7178 80.4009 26.6874 80.3253 26.687C80.0391 26.687 79.7289 27.074 79.7227 27.205C79.7138 27.399 79.9591 27.745 80.2791 28.175L80.3467 28.268C80.5096 28.486 80.6838 28.6023 80.8693 28.617C81.0569 28.617 81.2044 28.547 81.3618 28.382C81.4782 28.261 81.7369 27.956 81.6196 27.769L81.6231 27.766ZM82.9618 30.271C82.9177 30.1732 82.8808 30.0716 82.8516 29.967C82.8249 29.8205 82.8042 29.6726 82.7893 29.524C82.7627 29.288 82.7378 29.064 82.6729 28.891C82.6265 28.7843 82.5549 28.694 82.4661 28.6298C82.3772 28.5656 82.2744 28.5301 82.1689 28.527C82.0959 28.526 82.0239 28.5452 81.9591 28.583C81.6462 28.759 81.4578 28.95 81.5102 29.347C81.6827 29.925 81.768 30.344 81.8827 30.914C81.8951 31.001 81.9476 31.288 82.0693 31.288C82.0794 31.288 82.0889 31.287 82.0978 31.285L82.9991 30.953C83.0201 30.946 83.0394 30.934 83.0558 30.9177C83.0723 30.9015 83.0854 30.8815 83.0942 30.859C83.1467 30.724 83.0516 30.496 82.9591 30.274L82.9618 30.271Z" fill="#D2003C"/>
<path d="M81.3689 31.08C81.2976 30.4571 81.1439 29.8497 80.9129 29.278L80.9013 29.251H80.8738C80.3502 29.288 80.0275 28.811 79.7138 28.354C79.6098 28.202 79.5138 28.06 79.4098 27.936C79.2545 27.7405 79.0869 27.5577 78.9084 27.389C78.7235 27.209 78.5671 27.05 78.5058 26.909C78.432 26.735 78.352 26.403 78.2747 26.081C78.2195 25.853 78.168 25.635 78.1182 25.486L78.0871 25.393C77.992 25.109 77.8782 24.756 77.552 24.698C77.3893 24.667 77.2107 24.66 77.0418 24.653C76.5707 24.632 76.0978 24.539 75.8551 24.158C75.6302 23.808 75.7218 23.483 75.8489 23.138C75.904 22.985 75.944 22.858 75.9751 22.712C76.144 22.072 76.2027 21.276 76.0729 20.719C76.052 20.6291 76.0273 20.5403 75.9991 20.453C75.9315 20.221 75.8515 19.868 75.9013 19.761C75.9529 19.654 76.0053 19.636 76.1004 19.636C76.184 19.636 76.2791 19.668 76.368 19.696C76.4329 19.716 76.4818 19.726 76.544 19.744C76.7769 19.806 77.128 19.878 77.448 19.878C77.9769 19.878 78.5324 19.75 79.0124 19.518C79.92 19.024 80.8151 17.907 80.7689 16.523C80.6489 15.122 79.88 13.769 78.4133 12.382C78.3795 12.347 78.3395 12.312 78.3022 12.278C78.112 12.101 77.8809 11.877 77.8755 11.679C77.8702 11.481 78.3271 11.361 78.6133 11.285C78.6803 11.269 78.7395 11.253 78.7911 11.237L78.8649 11.216C79.2311 11.109 79.6062 10.998 79.9173 10.756C80.9627 9.963 80.9253 8.569 80.8062 7.801C80.8009 7.781 80.7955 7.757 80.7902 7.729C80.7724 7.629 80.7475 7.504 80.664 7.504C80.6338 7.50626 80.6053 7.52084 80.584 7.545L80.4889 7.645C80.3689 7.774 80.2364 7.919 80.0827 8.015C79.7511 8.237 79.3511 8.331 78.9671 8.421C78.7209 8.479 78.4658 8.538 78.2293 8.631C77.1893 9.036 76.544 9.628 76.3129 10.392C76.1929 10.79 76.2578 11.292 76.488 11.776C76.8293 12.382 77.3182 12.911 77.7947 13.423C78.5458 14.233 79.32 15.066 79.4986 16.201C79.5964 16.861 79.3573 17.419 78.7698 17.9C78.4622 18.107 78.0684 18.218 77.632 18.218C77.0788 18.2126 76.5347 18.0583 76.0453 17.768C75.4364 17.426 74.8489 16.983 74.28 16.554C73.4249 15.911 72.5395 15.246 71.5591 14.894C71.1342 14.675 70.6613 14.568 70.2053 14.464C69.5564 14.316 68.8862 14.164 68.3475 13.689C68.1626 13.5519 67.9812 13.4088 67.8035 13.26C67.3147 12.863 66.8107 12.45 66.2391 12.288C66.0258 12.205 65.8178 12.174 65.6142 12.14C65.3004 12.088 65.0089 12.043 64.7378 11.825L64.3689 11.524C63.9138 11.15 63.4435 10.763 62.9733 10.496C62.1644 10.043 61.3031 9.808 60.3404 9.573C60.0329 9.49 59.8427 9.23 59.6391 8.953C59.504 8.767 59.3627 8.576 59.184 8.441C58.4435 7.781 57.7698 7.338 56.9022 7.338C56.821 7.338 56.7401 7.34133 56.6595 7.348C56.2044 7.383 55.7618 7.77 55.4667 8.061C54.6027 8.911 53.6711 9.669 52.7733 10.403C51.4311 11.493 50.048 12.62 48.864 14.077C47.6987 15.43 47.2773 17.117 46.8649 18.754C46.8036 18.996 46.7458 19.235 46.6809 19.477C46.5698 19.924 46.4684 20.384 46.3698 20.827C45.8356 23.237 45.2853 25.646 43.144 27.209C43.0027 27.313 43.0524 27.514 43.184 27.569C43.24 27.593 44.1378 27.932 45.0329 26.922C45.5733 26.168 45.8747 25.472 46.5209 24.694C46.5422 24.67 46.616 24.604 46.6773 24.611C46.7209 24.635 46.7333 24.66 46.7209 24.746C46.6373 25.058 46.4684 25.331 46.3031 25.597C46.1342 25.87 45.9609 26.151 45.8747 26.472C45.6693 27.164 45.0969 27.725 44.5893 28.216C44.5893 28.216 44.5093 28.275 44.464 28.341C44.4178 28.406 44.4178 28.434 44.4178 28.434C44.4018 28.586 44.5093 28.68 44.728 28.69C45.928 28.69 46.7822 27.732 47.6062 26.801C47.6242 26.7805 47.6459 26.7646 47.6698 26.7545C47.6938 26.7443 47.7194 26.74 47.7449 26.742C47.79 26.7405 47.8349 26.7486 47.8773 26.766C47.9324 26.801 48.0587 26.94 48.1564 27.036C48.4275 27.306 48.704 27.586 49.0667 27.669H49.0791C49.5164 27.6 49.9093 27.545 50.3155 27.545C50.4341 27.5443 50.5428 27.549 50.6418 27.559C51.0782 27.707 51.5182 27.894 51.9395 28.071C52.2373 28.199 52.5449 28.327 52.8551 28.444H52.8684C53.2684 28.427 53.5529 28.009 53.7627 27.638C53.8604 27.375 53.8151 27.119 53.7689 26.87C53.7413 26.715 53.7138 26.57 53.7227 26.427C53.7964 26.386 53.8978 26.393 54.0062 26.41C54.1013 26.427 54.2391 26.41 54.2853 26.403C54.3902 26.386 54.5004 26.251 54.4702 26.075C54.3902 25.625 54.1902 25.348 53.9902 25.002C53.8151 24.708 53.6489 24.432 53.5662 24.12C53.4338 23.708 53.1538 23.366 52.8835 23.034C52.5698 22.65 52.2747 22.286 52.1849 21.826C52.1849 21.826 52.1582 21.729 52.1884 21.691C52.2187 21.653 52.3022 21.698 52.3022 21.698C52.4462 21.816 52.5911 21.948 52.7289 22.075C53.1849 22.491 53.6551 22.923 54.2276 23.02C54.7591 23.079 55.3431 23.155 55.912 23.1C56.0631 23.072 56.1395 22.923 56.1031 22.781C55.8755 22.241 55.6418 21.661 55.5004 21.027C55.3804 20.55 55.1129 19.294 55.3867 18.346C55.4142 18.253 55.4693 18.221 55.5191 18.221C55.5238 18.2203 55.531 18.2217 55.5404 18.225C55.6329 18.249 55.6942 18.374 55.7067 18.47L55.7155 18.595C55.7956 19.885 55.872 21.103 56.5733 22.141C56.7609 22.477 57.0284 22.653 57.2871 22.826C57.4649 22.944 57.6711 23.051 57.8009 23.238C57.9484 23.448 57.9724 23.808 57.872 24.026L57.0098 25.456C56.8071 25.781 56.6098 26.13 56.5395 26.486C56.4755 26.846 56.5031 27.196 56.5307 27.535L56.5369 27.617C56.5092 27.5978 56.4868 27.5705 56.472 27.538C56.1253 26.832 56.0542 26.234 56.232 25.774C56.3458 25.476 57.0471 24.359 57.2498 23.992C57.3147 23.874 57.3671 23.757 57.312 23.677C57.2435 23.577 56.7182 23.324 56.5796 23.324C56.5707 23.3233 56.5615 23.3247 56.552 23.328C56.4293 23.366 56.3493 23.494 56.2782 23.608L56.2293 23.684L55.168 25.85L55.1431 25.93C55.0818 26.147 55.0275 26.334 55.0818 26.583C55.1404 26.908 55.2293 27.258 55.2969 27.513L55.3529 27.725C55.448 28.102 55.5369 28.455 55.6844 28.652C55.7288 28.7121 55.785 28.7597 55.8486 28.7909C55.9121 28.8222 55.9814 28.8362 56.0507 28.832C56.1307 28.832 56.2133 28.818 56.2933 28.804C56.4267 28.78 56.5707 28.763 56.6782 28.794C56.8382 28.839 56.9484 28.974 57.0658 29.112C57.1822 29.254 57.3022 29.399 57.4809 29.458C57.8098 29.583 58.1538 29.683 58.4862 29.78C58.9289 29.911 59.3875 30.046 59.824 30.236C60.0702 30.326 60.3342 30.409 60.5893 30.409C60.8729 30.409 61.048 30.319 61.2942 30.095C61.6382 29.78 61.752 29.468 61.8382 29.019C61.9058 28.607 62.0284 28.579 62.2933 28.562C62.4222 28.555 62.4409 28.562 62.5671 28.514C62.6995 28.465 63.0835 27.936 63.2835 27.504C63.3398 27.3853 63.3961 27.279 63.4524 27.185C63.5056 27.1064 63.5349 27.0107 63.536 26.912C63.536 26.697 63.376 26.632 63.2747 26.628H63.2062C63.2062 26.628 62.0747 26.618 61.7644 26.628C61.3004 26.656 61.0978 27.158 60.9342 27.604C60.8693 27.777 60.8107 27.936 60.7342 28.078C60.6115 28.327 60.3715 28.479 60.0764 28.472C59.9902 28.472 59.7991 28.413 59.7013 28.386C59.0889 28.216 58.4587 28.043 58.2 27.358C58.176 27.241 58.136 26.998 58.2889 26.794C58.6151 26.369 59.0462 25.829 59.4889 25.442C60.104 25.296 60.7191 24.784 61.0569 24.141C61.128 24.03 61.1644 23.899 61.2018 23.774C61.2569 23.58 61.3084 23.397 61.4658 23.283C61.5644 23.227 61.6444 23.245 61.6658 23.342C61.7244 23.702 61.6044 24.047 61.4844 24.382C61.4576 24.4567 61.4321 24.5321 61.408 24.608L61.3893 24.663L61.4418 24.67C61.6118 24.688 61.7849 24.6973 61.9609 24.698C62.592 24.698 63.1911 24.577 63.7724 24.459C64.3475 24.341 64.944 24.22 65.5591 24.22C65.6243 24.2193 65.6909 24.2207 65.7591 24.224C66.0329 24.224 66.2969 24.251 66.5555 24.276C66.808 24.3 67.0693 24.328 67.3307 24.328C67.4222 24.328 67.5084 24.328 67.5947 24.318C68.3822 24.276 68.9547 23.874 69.1262 23.238C69.2889 22.695 69.2711 21.758 69.0738 20.449C69.0649 20.387 69.0587 20.346 69.0587 20.339V20.315C69.0587 20.266 69.0587 20.215 69.1173 20.183C69.1911 20.138 69.2684 20.183 69.304 20.29C69.6027 21.231 69.7751 22.314 69.8675 23.058C69.9689 23.781 70.2364 24.514 70.6915 25.296C71.2542 26.241 72.1831 26.784 73.2373 26.784C73.4835 26.784 73.7298 26.732 73.9724 26.697C74.1413 26.673 74.2062 26.683 74.32 26.683C75.6613 26.683 76.8267 27.337 77.6969 28.573C77.6969 28.573 77.712 28.597 77.712 28.631C77.712 28.683 77.6444 28.735 77.5858 28.707L77.472 28.607C76.7164 27.947 75.9342 27.265 74.9538 27.13C74.7709 27.0946 74.5856 27.0772 74.4 27.078C74.1223 27.0827 73.8451 27.1058 73.5698 27.147C73.2995 27.182 73.0471 27.217 72.7858 27.217C72.4818 27.2233 72.1798 27.1622 71.8969 27.037C70.768 26.617 69.8462 25.157 69.5502 24.251C69.5395 24.2255 69.5227 24.204 69.5016 24.1888C69.4806 24.1735 69.4561 24.1653 69.4311 24.165C69.4003 24.1643 69.3683 24.176 69.3351 24.2C69.2035 24.293 69.1813 24.341 69.1635 24.431C69.1449 24.507 69.2551 25.158 69.3049 25.438C69.4524 26.13 69.6738 27.175 70.4791 27.562C70.5787 27.6293 70.6782 27.6997 70.7778 27.773C71.1804 28.063 71.5955 28.365 72.072 28.365C72.1864 28.365 72.299 28.3477 72.4098 28.313C72.6972 28.2423 72.9884 28.2067 73.2835 28.206C74.2124 28.206 75.1564 28.562 75.9502 29.212C76.0818 29.299 76.208 29.416 76.328 29.531C76.5004 29.693 76.6755 29.859 76.8853 29.946C77.0169 30.006 77.1582 30.036 77.3093 30.036C77.6693 30.036 77.7609 29.915 78.0169 29.773C78.1107 29.7207 78.2136 29.6924 78.3182 29.69C78.6071 29.69 78.7671 29.942 78.9698 30.264C79.0924 30.458 79.2311 30.676 79.4187 30.866C79.68 31.153 80.0427 31.188 80.3289 31.188C80.4862 31.188 80.6427 31.174 80.7964 31.164C80.944 31.154 81.1227 31.146 81.2178 31.136C81.3102 31.122 81.3627 31.108 81.3627 31.108V31.067L81.3689 31.08ZM50.8133 26.255C50.7618 26.362 50.6356 26.424 50.4693 26.424C50.3313 26.4272 50.1954 26.3852 50.0782 26.303C49.8631 26.13 49.7378 25.843 49.7191 25.466C49.7155 25.379 49.7102 25.289 49.8142 25.203C49.8667 25.168 49.8978 25.168 49.9591 25.168C50.1644 25.168 50.4942 25.317 50.6693 25.556C50.6818 25.573 50.9556 25.981 50.8142 26.258L50.8133 26.255ZM51.1093 20.93C51.032 21.041 50.9156 21.124 50.8018 21.062C50.6942 21.02 50.5982 20.864 50.5404 20.747C50.4667 20.598 50.4044 20.47 50.2293 20.484H50.2018C50.048 20.498 49.9315 20.584 49.808 20.691C49.7467 20.747 49.4969 20.955 49.4364 21.013C49.1013 21.332 48.7627 21.66 48.6827 22.106C48.6658 22.1856 48.6504 22.2657 48.6364 22.346C48.6115 22.501 48.5876 22.663 48.4702 22.746H48.4613C48.4456 22.7567 48.4272 22.7616 48.4089 22.76C48.3558 22.7579 48.3049 22.7361 48.264 22.698C48.243 22.6801 48.2258 22.6572 48.2137 22.6309C48.2015 22.6046 48.1947 22.5756 48.1938 22.546C48.1351 21.778 48.3662 21.086 48.8453 20.595C49.1564 20.308 49.4053 19.948 49.648 19.598C49.7653 19.428 49.888 19.252 50.0142 19.09C50.1093 18.983 50.2667 19.073 50.5244 19.39C50.632 19.522 50.9707 20.17 51.1244 20.595C51.1423 20.648 51.1499 20.7046 51.1469 20.7611C51.1438 20.8177 51.1301 20.8729 51.1067 20.923L51.1093 20.93ZM56.7582 12.001C56.6293 12.14 56.4933 12.278 56.3582 12.42C55.8782 12.911 55.3831 13.42 55.0578 13.994C54.904 14.229 54.7902 14.499 54.6791 14.762C54.6667 14.79 54.6391 14.848 54.5867 14.848C54.5595 14.846 54.5341 14.8324 54.5156 14.81C54.424 14.706 54.5004 13.983 54.6204 13.62C54.8853 12.818 55.4844 11.977 56.2693 11.316C56.3563 11.256 56.4562 11.2238 56.5582 11.223C56.7058 11.223 56.8195 11.299 56.8658 11.43C56.9636 11.607 56.928 11.814 56.7582 12.001ZM24.7138 27.206C24.6861 27.154 24.6606 27.1006 24.6373 27.046C24.5573 26.877 24.5147 26.697 24.4747 26.541C24.3947 26.227 24.3271 25.953 24.0222 26.001C23.592 26.071 23.1733 26.102 22.7067 26.102C22.6996 26.102 22.5555 26.102 22.5093 26.216C22.4569 26.348 22.5742 26.472 22.7004 26.6C22.7707 26.673 22.8444 26.749 22.8933 26.832C22.9795 26.974 23.0622 27.178 23.1422 27.375C23.2684 27.69 23.3796 27.96 23.5058 28.005C23.5636 28.0236 23.6234 28.0327 23.6835 28.032C23.9769 28.032 24.3787 27.856 24.6711 27.6C24.8338 27.444 24.7822 27.34 24.7084 27.202L24.7138 27.206ZM3.68355 26.715L3.65955 26.694C3.57066 26.614 3.41066 26.624 3.30222 26.708C3.22844 26.766 3.15111 26.822 3.07822 26.878C2.83822 27.057 2.58933 27.24 2.328 27.489C2.232 27.579 2.17955 27.749 2.17066 27.88C2.16177 27.984 2.17955 28.067 2.21689 28.12C2.23822 28.147 2.42933 28.385 2.46933 28.424C2.55323 28.508 2.66104 28.5555 2.77333 28.558C2.86335 28.5556 2.95162 28.5296 3.03111 28.482C3.496 28.22 3.976 27.251 3.99466 27.195C4.04355 27.04 3.88711 26.898 3.68355 26.715ZM2.152 29.012C2.05689 28.86 1.74044 28.441 1.56177 28.441C1.54666 28.441 1.53066 28.441 1.51911 28.451C1.27289 28.565 0.986663 28.925 0.971552 29.14C0.90933 30.077 0.88533 30.177 0.657774 30.465C0.592885 30.545 0.550219 30.731 0.623996 30.811C0.687996 30.883 1.50666 31.174 1.59822 31.174H1.61689C1.69066 31.146 1.752 30.935 1.91911 30.288C2.008 29.938 2.10933 29.544 2.22311 29.188C2.22933 29.164 2.232 29.129 2.15822 29.012H2.152Z" fill="#D2003C"/>
<path d="M27.2382 28.95C27.5733 28.922 27.9209 28.894 28.1671 28.6C28.4782 28.091 28.7449 27.58 28.9796 27.04C29.1884 26.555 29.1911 26.081 28.9858 25.711C28.3671 24.597 28.2569 24.303 28.0044 23.546L27.9982 23.525L27.9804 23.518C27.9074 23.4925 27.8353 23.4635 27.7644 23.431C27.6133 23.366 27.4533 23.293 27.2729 23.293H27.248C27.0356 23.3 26.8916 23.376 26.8329 23.508L26.824 23.528L27.9458 26.019C28.0169 26.213 28.0996 26.41 28.0569 26.701C28.0133 26.991 27.4631 27.967 27.2969 28.091C27.2691 28.1168 27.235 28.1325 27.1991 28.136C27.1867 28.136 27.128 28.123 27.1644 27.977C27.2693 27.573 27.4018 26.621 27.3644 26.317C27.3244 25.964 26.384 24.213 26.344 24.137L26.3253 24.107C26.1804 23.84 26.0302 23.563 26.0427 23.241C26.0427 23.092 26.1653 22.989 26.2542 22.951C26.4178 22.881 26.5742 22.854 26.7404 22.812C27.1404 22.712 27.552 22.612 27.7004 22.359C28.1493 21.591 28.416 20.789 28.5947 19.678C28.6036 19.629 28.6347 19.536 28.696 19.536C28.7333 19.536 28.7698 19.55 28.7849 19.646C28.8661 20.1713 28.8537 20.7096 28.7482 21.2294C28.6428 21.7493 28.4464 22.2403 28.1707 22.674C28.1317 22.7466 28.1175 22.8325 28.1307 22.916C28.1431 23.006 28.232 23.079 28.232 23.079C28.4471 23.245 29.2347 23.148 29.8062 22.812C30.2427 22.822 30.6524 22.736 31.0516 22.653C31.1784 22.6257 31.3034 22.6003 31.4267 22.577C31.4667 22.601 31.4978 22.643 31.504 22.674C31.1689 23.099 30.9653 23.577 30.8613 24.175C30.766 24.2836 30.6676 24.3886 30.5662 24.49C30.2 24.867 29.8062 25.29 29.7876 25.829C29.7876 25.829 29.776 26.023 29.9636 26.036C30.0213 26.04 30.0889 26.006 30.1502 25.978C30.2105 25.9429 30.2771 25.9237 30.3449 25.922C30.3735 25.9266 30.3999 25.9423 30.4193 25.9664C30.4388 25.9905 30.4502 26.0215 30.4516 26.054L30.0338 26.742C29.8773 27.029 29.9449 27.334 30.0062 27.632C30.0524 27.794 30.0311 27.922 30.0711 28.067C30.1751 28.41 30.5476 28.572 30.8427 28.572C31.3867 28.545 31.8827 28.344 32.3618 28.15C32.448 28.116 32.5307 28.081 32.6196 28.047C33.1458 27.791 33.8471 27.739 34.6809 27.891C35.3511 27.842 35.8551 27.344 36.344 26.86C36.5532 26.8667 36.7686 27.005 36.9902 27.275C37.7156 28.15 38.6044 28.575 39.7084 28.575H39.8347L39.9449 28.565C40.0587 28.535 40.0898 28.472 40.096 28.392C40.1049 28.296 40.0373 28.199 39.9147 28.133L39.296 27.763C38.8009 27.41 38.2631 26.984 38.1156 26.423C37.9556 25.825 37.6569 25.217 37.4329 24.812C37.3872 24.7294 37.3389 24.6487 37.288 24.57C37.2018 24.428 37.1102 24.282 37.048 24.13C37.7218 24.4 38.0996 24.96 38.5556 25.895C38.8933 26.59 39.7733 27.337 40.6062 27.337C40.7173 27.337 40.8213 27.323 40.9262 27.299C41.0151 27.279 41.0738 27.213 41.0862 27.126C41.0951 27.05 41.0862 26.977 41.0124 26.932L40.5076 26.649C39.9084 26.254 39.5636 25.604 39.2284 24.971C39.096 24.721 38.9618 24.466 38.8133 24.234C38.7182 24.074 38.552 23.909 38.408 23.764C38.2818 23.636 38.1618 23.514 38.1396 23.449C37.5929 21.767 36.9964 19.792 36.8516 17.595C36.8302 17.26 36.6204 16.523 36.3716 16.045C35.5938 14.62 33.736 12.181 33.6347 12.06C33.5707 11.9844 33.5052 11.9103 33.4382 11.838L33.3884 11.783L30.0427 8.656C29.3787 8.13 29.176 8.036 28.6933 7.843C28.3551 7.71214 27.9994 7.64786 27.6418 7.653C27.168 7.653 26.6942 7.756 26.3067 7.943C26.04 8.103 25.7813 8.289 25.5289 8.469C25.1022 8.777 24.6578 9.095 24.1787 9.275C23.8036 9.465 23.4009 9.604 23.0107 9.739C22.2507 10.001 21.4667 10.275 20.8453 10.919C20.664 11.105 20.5164 11.261 20.3929 11.396C19.8187 12.005 19.76 12.07 19.2898 12.07C18.2009 12.07 17.4293 12.371 16.6231 13.108C15.9867 13.758 15.3564 14.368 14.6213 14.655C14.2924 14.783 13.9262 14.831 13.5387 14.873C12.9822 14.928 12.896 14.935 12.3707 15.077C11.5769 15.281 10.7351 16.017 10.024 16.64C9.79022 16.844 9.48 17.114 9.33245 17.222C9.25511 17.277 9.16356 17.342 9.08889 17.392C8.20356 17.972 7.36978 18.522 6.29956 18.522H6.21956C5.42045 18.457 4.69511 17.837 4.45156 17.017C4.22756 16.094 4.46756 15.146 5.11556 14.419C5.42311 14.073 5.77334 13.738 6.11556 13.413C6.66311 12.89 7.17956 12.395 7.53956 11.853C7.95734 11.223 7.91111 10.161 7.44089 9.583C6.97334 9.005 5.928 8.718 5.53422 8.611L5.46667 8.593C5.42667 8.583 5.35911 8.573 5.32178 8.563C5.07289 8.507 4.83289 8.469 4.59022 8.403C3.96889 8.213 3.48622 7.67 2.936 7.338C2.72356 7.704 2.65245 8.102 2.68089 8.545C2.78489 9.479 3.47734 10.448 4.24534 10.842C4.27911 10.856 4.31022 10.873 4.344 10.884C4.58667 11.001 4.84178 11.019 5.08178 11.019H5.39289C5.54045 11.019 5.71911 11.019 5.87822 11.064C5.96273 11.0914 6.03832 11.146 6.09577 11.2209C6.15322 11.2958 6.19005 11.3879 6.20178 11.486C6.21422 11.61 6.16445 11.707 6.024 11.828L5.63289 12.191C4.97156 12.804 4.28889 13.441 3.73511 14.211C2.99111 15.115 2.95734 16.685 3.30489 17.702C3.74756 19.042 4.97156 19.792 5.98934 19.937C6.17067 19.968 6.352 19.986 6.54311 19.986C7.14222 19.986 7.71111 19.823 8.26489 19.667C8.28563 19.661 8.30311 19.6587 8.31734 19.66C8.34222 19.66 8.39111 19.66 8.4 19.802C8.416 20.079 8.43111 20.394 8.44356 20.698C8.46134 21.193 8.48356 21.66 8.51467 21.858C8.58756 22.297 8.78134 22.833 8.91111 23.186C8.96622 23.335 9.00889 23.452 9.02134 23.511C9.07111 23.711 9.02489 23.93 8.90489 24.054C8.48711 24.487 7.63378 24.829 7.47734 24.854C7.22578 24.888 6.95822 24.905 6.76089 24.916C6.66311 24.922 6.58311 24.926 6.54311 24.933C6.45495 24.9433 6.37252 24.9871 6.30934 25.057C6.18934 25.189 6.06045 25.566 5.90667 26.002C5.81422 26.265 5.72178 26.538 5.62667 26.763C5.35911 27.261 4.91289 27.555 4.48 27.835C4.37096 27.905 4.2643 27.9767 4.16 28.05L4.14756 28.064C3.96978 28.382 3.79022 28.683 3.56 28.911C3.38222 29.098 3.15378 29.14 2.93245 29.171H2.91734L2.90845 29.185C2.56978 29.621 2.46222 30.198 2.35467 30.762C2.33867 30.8493 2.32208 30.9347 2.30489 31.018L2.28978 31.098H2.33334C2.51111 31.122 2.68889 31.164 2.87734 31.212C3.12622 31.274 3.38134 31.337 3.63378 31.337C3.87378 31.337 4.07645 31.281 4.26134 31.167C4.584 31.001 4.75645 30.665 4.92534 30.344C5.03645 30.133 5.15022 29.911 5.304 29.742C5.34677 29.6873 5.39984 29.644 5.45934 29.6153C5.51885 29.5866 5.5833 29.5732 5.648 29.576C5.77422 29.576 5.91289 29.617 6.04445 29.659C6.168 29.697 6.29334 29.735 6.41334 29.742C7.01067 29.78 7.576 29.358 7.84978 29.112C7.96978 29.005 8.08978 28.877 8.20622 28.756C8.38756 28.566 8.57245 28.368 8.77245 28.23C9.01511 28.098 9.30756 28.036 9.67022 28.036C10.1191 28.036 10.5956 28.136 10.9742 28.216C11.176 28.275 11.3835 28.3052 11.592 28.306C11.9324 28.313 12.2685 28.22 12.5671 28.036C12.8996 27.826 13.2338 27.628 13.5022 27.469C13.6587 27.375 13.7973 27.296 13.9049 27.227C14.3813 26.933 14.7876 26.116 14.9378 25.777C15.08 25.462 15.32 24.781 15.3227 24.774L15.3351 24.743L14.7778 24.265L14.7564 24.307C14.7564 24.307 14.3876 24.988 14.1511 25.303C13.1698 26.805 11.5733 26.998 10.2916 26.998C10.2027 26.994 10.1144 26.9917 10.0267 26.991C8.44 26.991 7.16089 27.59 6.22578 28.773C6.18311 28.828 6.10578 28.839 6.07467 28.79C6.05689 28.763 6.05067 28.718 6.06311 28.662C6.08205 28.5568 6.11757 28.4562 6.168 28.365C7.16089 26.777 8.85867 26.542 10.2267 26.514C11.2382 26.438 11.9733 26.241 12.6133 25.874C13.4347 25.404 14.04 24.366 14.28 23.542C14.4364 23.002 14.5138 22.425 14.5876 21.868C14.6462 21.425 14.7076 20.968 14.8053 20.546C14.8142 20.5198 14.8299 20.4972 14.8504 20.4812C14.8708 20.4651 14.8951 20.4564 14.92 20.456C14.9316 20.456 14.9413 20.456 14.9591 20.466C15.0124 20.477 15.1102 20.518 15.1102 20.605C14.9716 21.477 14.784 22.674 15.1378 23.67C15.304 24.064 15.6542 24.258 16.2142 24.258C16.552 24.258 16.9218 24.192 17.2809 24.13C17.5582 24.082 17.8196 24.033 18.0436 24.023C18.1384 24.013 18.235 24.0083 18.3333 24.009C18.7787 24.009 19.2098 24.106 19.6249 24.199C19.9876 24.282 20.3627 24.365 20.7467 24.386C20.8154 24.39 20.8883 24.396 20.9653 24.404C21.0978 24.417 21.2356 24.428 21.3778 24.428C21.7031 24.428 21.9342 24.355 22.1004 24.203C22.2169 24.096 22.1769 23.933 22.1244 23.729L22.1156 23.691C22.1073 23.6557 22.0969 23.6177 22.0844 23.577C22.0107 23.307 21.8978 22.899 22.0844 22.708C22.1149 22.6832 22.1517 22.6698 22.1893 22.67C22.2196 22.67 22.2631 22.68 22.2756 22.736L22.3369 22.971C22.4196 23.297 22.5058 23.636 22.6907 23.926C23.0818 24.486 23.6836 25.019 24.4338 25.459C24.9173 25.832 25.4978 26.462 25.5449 27.341C25.5449 27.739 25.2 28.015 24.9449 28.188C24.5413 28.413 23.8524 28.666 23.5271 28.666C23.4839 28.6696 23.4406 28.6614 23.4009 28.642C22.9333 28.362 22.6933 27.908 22.4382 27.427C22.3049 27.1632 22.1539 26.9111 21.9867 26.673C21.7431 26.369 21.4356 26.251 21.0204 26.289C20.6204 26.324 20.2516 26.41 19.8151 26.514C19.7726 26.5223 19.7325 26.5422 19.6983 26.5718C19.6641 26.6014 19.6367 26.6399 19.6187 26.684C19.5996 26.7365 19.5919 26.7933 19.5961 26.8497C19.6003 26.9062 19.6162 26.9608 19.6427 27.009C19.8702 27.465 20.0889 27.88 20.3227 28.319L20.4276 28.517C20.4827 28.624 20.6027 28.638 20.7004 28.638C20.7538 28.638 20.8113 28.6347 20.8729 28.628C20.9381 28.6227 21.0047 28.6193 21.0729 28.618C21.2756 28.618 21.4053 28.673 21.488 28.787C21.5591 28.907 21.6204 29.036 21.6818 29.16C21.8356 29.468 21.9929 29.79 22.2569 30.018C22.4969 30.258 22.8436 30.392 23.2071 30.392C23.3671 30.392 23.5209 30.364 23.6684 30.316C24.7173 29.946 25.7378 29.566 26.7093 28.981C26.7093 28.981 27.0942 28.974 27.2418 28.96L27.2382 28.95ZM28.9822 15.72C28.9644 15.793 28.9236 15.841 28.8773 15.841C28.8596 15.841 28.8098 15.831 28.7947 15.737C28.6196 14.731 28.5147 14.236 28.3084 13.772C28.2444 13.624 28.1609 13.499 28.0907 13.388C27.9396 13.157 27.8107 12.959 27.9556 12.69C27.9982 12.61 28.1058 12.558 28.2222 12.558C28.2809 12.5587 28.3333 12.5713 28.3796 12.596C28.552 12.69 28.7209 12.925 28.8933 13.316C29.3236 14.309 28.9822 15.71 28.9787 15.724L28.9822 15.72ZM34.6071 25.746C34.6071 25.746 34.5787 26.03 34.4622 26.154C34.3422 26.275 33.9182 26.341 33.6933 26.334C33.4693 26.324 33.392 26.289 33.3467 26.213C33.2933 26.126 33.3796 25.957 33.3796 25.957C33.4071 25.895 33.6684 25.282 34.1973 25.12C34.1973 25.12 34.3662 25.05 34.5298 25.14C34.6924 25.23 34.616 25.687 34.6098 25.75L34.6071 25.746ZM36.1378 21.788C36.1223 21.9279 36.085 22.0637 36.0276 22.189C36 22.245 35.9538 22.366 35.8 22.369C35.6311 22.369 35.6427 22.148 35.6427 22.117C35.6427 22.117 35.6213 21.497 35.5164 21.238C35.4027 20.954 34.8498 20.155 34.5298 20.19C34.4498 20.197 34.2409 20.339 34.0871 20.563C33.8996 20.837 33.8996 20.871 33.8409 20.913C33.7822 20.955 33.7084 20.933 33.6844 20.771C33.6596 20.608 33.6311 20.477 33.6996 20.169C33.7671 19.861 33.8347 19.792 33.9147 19.571C33.9147 19.571 34.0809 19.138 34.1422 19.031C34.3147 18.737 34.5422 18.758 34.5422 18.758C34.6036 18.761 34.8 18.733 35.0133 19.031C35.2587 19.377 35.2062 19.346 35.2738 19.467C35.3413 19.587 35.416 19.716 35.6187 19.965C35.8213 20.215 36.0453 20.698 36.1076 20.999C36.1689 21.3 36.1662 21.556 36.1316 21.789L36.1378 21.788Z" fill="#D2003C"/>
</g>
</g>
<defs>
<clipPath id="clip0_1_3">
<rect width="86.2222" height="36" fill="white"/>
</clipPath>
</defs>
</svg>
